# xmcd
# 
# Track frame offsets:
#     150
#     17187
#     30962
#     49215
#     64522
#     80435
#     90895
#     106615
#     121170
#     135840
#     150337
#     167000
#     181342
#     195902
#     212390
#     230962
#     243892
#     259070
#     269760
#     281970
#     297867
#     316525
#     327815
# 
# Disc length: 4584
# 
# Revision: 1
# Processed by: cddbd v1.5.2PL0 Copyright (c) Steve Scherf et al.
# Submitted via: BonkEnc v1.0.6
# 
DISCID=2511e617
DTITLE=Gaúcho da Fronteira - Dose Dupla
DYEAR=0
DGENRE=Regional
TTITLE0=Vanerão Sambado
TTITLE1=Desafio da Rancheira
TTITLE2=Gaiteiro, China e Acordeona
TTITLE3=Que Lindo Mi China
TTITLE4=Dando Boca Pro Gateado
TTITLE5=Cordeona de Botão
TTITLE6=Rock Bagual
TTITLE7=Paixão Ingrata
TTITLE8=Pra Goiás
TTITLE9=Na Minha Terra Tem Quem Queira
TTITLE10=Fandango da Esperança
TTITLE11=Vingança
TTITLE12=Nhecho Vari Nheco Fum
TTITLE13=Eu Quero Xote
TTITLE14=Meu Rastro
TTITLE15=Pára Pedro
TTITLE16=Recanto do Nosso Amor
TTITLE17=Adeus Mariana
TTITLE18=O Dedo
TTITLE19=Saudade Louca
TTITLE20=Meu Pedido
TTITLE21=Mudança pra Capital
TTITLE22=Fim da Picada
EXTD=Fernando Pereira\nfernandotoo@hotmail.com
EXTT0=
EXTT1=
EXTT2=
EXTT3=
EXTT4=
EXTT5=
EXTT6=
EXTT7=
EXTT8=
EXTT9=
EXTT10=
EXTT11=
EXTT12=
EXTT13=
EXTT14=
EXTT15=
EXTT16=
EXTT17=
EXTT18=
EXTT19=
EXTT20=
EXTT21=
EXTT22=
PLAYORDER=
